<svg width="27" height="30" viewBox="0 0 27 30" fill="none" xmlns="http://www.w3.org/2000/svg">
<g clip-path="url(#clip0_419_28178)">
<path d="M13.125 11.8746C12.5069 11.8748 11.9028 12.0583 11.3889 12.4019C10.8751 12.7455 10.4747 13.2337 10.2384 13.8048C10.002 14.3759 9.94025 15.0043 10.061 15.6105C10.1817 16.2166 10.4795 16.7734 10.9166 17.2104C11.3537 17.6474 11.9106 17.9449 12.5169 18.0654C13.1231 18.1859 13.7515 18.124 14.3225 17.8874C14.8935 17.6508 15.3815 17.2502 15.7249 16.7363C16.0683 16.2223 16.2516 15.6181 16.2516 15C16.2509 14.1711 15.9213 13.3763 15.3351 12.7903C14.7488 12.2043 13.9539 11.8749 13.125 11.8746ZM20.4322 9.47227C20.2731 9.06905 20.0329 8.70282 19.7263 8.39631C19.4198 8.0898 19.0536 7.84954 18.6504 7.69043C17.4199 7.20469 14.4902 7.31367 13.125 7.31367C11.7598 7.31367 8.83301 7.20059 7.59902 7.69043C7.19581 7.84954 6.82958 8.0898 6.52307 8.39631C6.21656 8.70282 5.97629 9.06905 5.81719 9.47227C5.33203 10.7027 5.44043 13.6354 5.44043 14.9994C5.44043 16.3635 5.33203 19.2926 5.81953 20.5271C5.97864 20.9304 6.2189 21.2966 6.52541 21.6031C6.83193 21.9096 7.19815 22.1499 7.60137 22.309C8.83184 22.7947 11.7615 22.6857 13.1273 22.6857C14.4932 22.6857 17.4188 22.7988 18.6527 22.309C19.056 22.1499 19.4222 21.9096 19.7287 21.6031C20.0352 21.2966 20.2755 20.9304 20.4346 20.5271C20.9238 19.2967 20.8113 16.3641 20.8113 15C20.8113 13.6359 20.9238 10.7074 20.4346 9.47285L20.4322 9.47227ZM13.125 19.8047C12.1747 19.8047 11.2458 19.5229 10.4557 18.995C9.66553 18.467 9.0497 17.7166 8.68605 16.8387C8.32239 15.9607 8.22724 14.9947 8.41263 14.0627C8.59802 13.1306 9.05562 12.2745 9.72757 11.6026C10.3995 10.9306 11.2556 10.473 12.1877 10.2876C13.1197 10.1022 14.0857 10.1974 14.9637 10.561C15.8416 10.9247 16.592 11.5405 17.12 12.3307C17.6479 13.1208 17.9297 14.0497 17.9297 15C17.9305 15.6312 17.8067 16.2563 17.5655 16.8396C17.3243 17.4229 16.9705 17.9528 16.5241 18.3991C16.0778 18.8455 15.5479 19.1993 14.9646 19.4405C14.3813 19.6817 13.7562 19.8055 13.125 19.8047ZM18.1277 11.1152C17.9059 11.1153 17.689 11.0497 17.5045 10.9265C17.32 10.8034 17.1762 10.6282 17.0912 10.4233C17.0062 10.2184 16.9839 9.9929 17.0271 9.77532C17.0703 9.55773 17.1771 9.35785 17.3339 9.20095C17.4908 9.04405 17.6906 8.93718 17.9081 8.89386C18.1257 8.85054 18.3512 8.87271 18.5562 8.95758C18.7611 9.04244 18.9363 9.18619 19.0596 9.37063C19.1828 9.55507 19.2486 9.77192 19.2486 9.99375C19.2493 10.1411 19.2208 10.287 19.1648 10.4233C19.1089 10.5596 19.0266 10.6835 18.9227 10.7879C18.8188 10.8923 18.6953 10.9752 18.5593 11.0318C18.4232 11.0883 18.2774 11.1175 18.1301 11.1176L18.1277 11.1152ZM23.4375 1.875H2.8125C2.06658 1.875 1.35121 2.17132 0.823762 2.69876C0.296316 3.22621 0 3.94158 0 4.6875L0 25.3125C0 26.0584 0.296316 26.7738 0.823762 27.3012C1.35121 27.8287 2.06658 28.125 2.8125 28.125H23.4375C24.1834 28.125 24.8988 27.8287 25.4262 27.3012C25.9537 26.7738 26.25 26.0584 26.25 25.3125V4.6875C26.25 3.94158 25.9537 3.22621 25.4262 2.69876C24.8988 2.17132 24.1834 1.875 23.4375 1.875ZM22.4344 18.8672C22.3588 20.3689 22.016 21.6996 20.9197 22.793C19.8234 23.8863 18.4939 24.2361 16.9939 24.3076C15.4465 24.3949 10.807 24.3949 9.25957 24.3076C7.75781 24.232 6.43184 23.8887 5.33379 22.793C4.23574 21.6973 3.89062 20.366 3.81914 18.8672C3.73184 17.3191 3.73184 12.6791 3.81914 11.1328C3.89473 9.63105 4.2334 8.30039 5.33379 7.20703C6.43418 6.11367 7.76367 5.76797 9.25957 5.69648C10.807 5.60918 15.4465 5.60918 16.9939 5.69648C18.4957 5.77207 19.8258 6.11543 20.9197 7.21113C22.0137 8.30684 22.3629 9.63809 22.4344 11.1398C22.5217 12.682 22.5217 17.318 22.4344 18.8672Z" fill="#323335"/>
</g>
<defs>
<clipPath id="clip0_419_28178">
<rect width="26.25" height="30" fill="white"/>
</clipPath>
</defs>
</svg>
