<svg width="31" height="30" viewBox="0 0 31 30" fill="none" xmlns="http://www.w3.org/2000/svg">
<path fill-rule="evenodd" clip-rule="evenodd" d="M1.5 3.5475C1.5 2.93817 1.74206 2.35379 2.17292 1.92293C2.60379 1.49206 3.18817 1.25 3.7975 1.25H26.7C27.002 1.24951 27.3011 1.30858 27.5802 1.42384C27.8593 1.53909 28.1129 1.70827 28.3266 1.92167C28.5402 2.13508 28.7097 2.38853 28.8252 2.66752C28.9408 2.9465 29.0002 3.24553 29 3.5475V26.45C29.0003 26.752 28.9411 27.0512 28.8257 27.3303C28.7103 27.6094 28.541 27.863 28.3275 28.0766C28.114 28.2903 27.8605 28.4597 27.5814 28.5752C27.3024 28.6908 27.0033 28.7502 26.7012 28.75H3.7975C3.49568 28.75 3.19682 28.6905 2.918 28.575C2.63917 28.4595 2.38584 28.2901 2.17248 28.0766C1.95912 27.8632 1.78991 27.6097 1.67453 27.3308C1.55914 27.052 1.49984 26.7531 1.5 26.4512V3.5475ZM12.385 11.735H16.1087V13.605C16.6462 12.53 18.0212 11.5625 20.0875 11.5625C24.0487 11.5625 24.9875 13.7038 24.9875 17.6325V24.91H20.9787V18.5275C20.9787 16.29 20.4412 15.0275 19.0762 15.0275C17.1825 15.0275 16.395 16.3888 16.395 18.5275V24.91H12.385V11.735ZM5.51 24.7388H9.52V11.5625H5.51V24.7375V24.7388ZM10.0938 7.265C10.1013 7.60834 10.0402 7.94974 9.91405 8.26915C9.78788 8.58855 9.59919 8.87955 9.35904 9.12504C9.11889 9.37054 8.83212 9.56559 8.51557 9.69876C8.19901 9.83193 7.85905 9.90052 7.51562 9.90052C7.1722 9.90052 6.83224 9.83193 6.51568 9.69876C6.19913 9.56559 5.91236 9.37054 5.67221 9.12504C5.43206 8.87955 5.24337 8.58855 5.1172 8.26915C4.99103 7.94974 4.92994 7.60834 4.9375 7.265C4.95234 6.59107 5.23048 5.94974 5.71236 5.47836C6.19423 5.00698 6.84153 4.74302 7.51562 4.74302C8.18972 4.74302 8.83702 5.00698 9.31889 5.47836C9.80077 5.94974 10.0789 6.59107 10.0938 7.265Z" fill="#323335"/>
</svg>
